<svg width="264" height="166" viewBox="0 0 264 166" fill="none" xmlns="http://www.w3.org/2000/svg">
  <g style="mix-blend-mode:multiply">
    <path opacity="0.047619" d="M248.099 132.785C265.674 118.505 262.378 72.3713 253.591 59.1902C241.508 42.7138 229.425 32.828 218.441 27.3359C207.457 21.8438 177.799 17.4501 163.52 17.4501C143.748 17.4501 125.075 21.8438 109.697 26.2375C92.1223 30.6312 59.1695 42.7138 43.7916 60.2887C26.2168 80.0603 41.5947 119.604 45.9884 126.194C54.7758 137.178 64.6616 148.163 78.9412 154.753C92.1223 161.344 103.107 160.245 112.992 161.344C120.681 162.442 152.536 165.738 171.209 162.442C184.39 159.147 207.457 154.753 214.048 151.458C218.441 148.163 233.819 144.867 248.099 132.785Z" fill="#F9FBFB"/>
    <path opacity="0.095238" d="M244.803 130.588C262.378 116.308 259.083 72.3713 250.295 59.1902C238.212 42.7138 226.13 33.9264 215.146 28.4343C204.161 22.9421 176.701 18.5484 162.421 18.5484C143.748 18.5484 123.976 22.9421 108.598 27.3359C92.1219 31.7296 59.1691 43.8122 44.8896 60.2886C27.3148 78.9619 41.5943 118.505 47.0864 125.096C55.8739 136.08 64.6613 147.064 78.9408 152.556C92.1219 158.048 103.106 158.048 111.894 158.048C119.583 159.147 149.24 163.541 169.012 159.147C183.291 155.852 204.161 151.458 210.752 148.163C216.244 145.966 230.524 142.671 244.803 130.588Z" fill="#F4F6F8"/>
    <path opacity="0.1429" d="M242.606 129.489C260.181 115.21 256.886 73.4698 248.099 60.2887C237.114 43.8123 223.933 35.0249 212.949 29.5327C203.063 24.0406 175.602 19.6469 162.421 19.6469C143.748 19.6469 125.075 22.9422 109.697 27.3359C93.2206 31.7296 60.2678 44.9107 45.9883 60.2887C29.5119 78.9619 42.693 116.308 48.1851 122.899C55.8741 133.883 65.7599 143.769 78.941 150.36C91.0237 155.852 102.008 154.753 110.795 155.852C117.386 156.95 147.043 161.344 166.815 158.049C181.095 154.753 200.866 150.36 207.457 147.064C212.949 143.769 228.327 140.474 242.606 129.489Z" fill="#EEF2F4"/>
    <path opacity="0.1905" d="M239.311 128.391C255.787 115.21 253.59 74.5682 244.803 61.3871C233.819 44.9107 221.736 37.2217 210.752 31.7296C200.866 26.2374 175.602 21.8437 161.323 21.8437C143.748 19.6469 125.075 24.0406 109.697 28.4343C93.2203 32.828 60.2675 44.9107 47.0864 60.2886C30.6101 77.8634 42.6927 114.111 49.2833 121.8C56.9723 131.686 65.7597 142.671 78.9408 148.163C91.0235 153.655 102.008 152.556 110.795 153.655C117.386 154.753 145.945 160.245 165.716 155.852C179.996 153.655 199.768 147.064 205.26 144.867C210.752 141.572 225.031 139.375 239.311 128.391Z" fill="#E9EDF1"/>
    <path opacity="0.2381" d="M236.016 126.194C252.492 113.013 250.295 73.4697 242.606 60.2886C231.622 43.8123 219.539 36.1233 208.555 30.6311C198.669 26.2374 174.504 20.7453 161.323 20.7453C143.748 20.7453 125.075 25.139 109.697 28.4343C93.2205 33.9264 61.3662 46.0091 48.1851 60.2886C32.8071 76.765 43.7913 113.013 50.3819 119.604C58.0709 129.489 65.7599 139.375 80.0394 145.966C92.1221 151.458 103.106 149.261 110.795 150.36C117.386 151.458 144.846 156.95 164.618 153.655C178.898 151.458 197.571 144.867 203.063 141.572C208.555 139.375 222.835 137.178 236.016 126.194Z" fill="#E3E9ED"/>
    <path opacity="0.2857" d="M233.819 125.096C250.296 113.013 248.099 74.5682 240.41 61.3871C229.426 44.9107 217.343 38.3201 207.457 32.828C197.571 28.4343 174.504 22.9422 161.323 22.9422C143.748 21.8437 125.075 25.139 109.697 29.5327C93.2209 33.9264 62.465 46.0091 49.2839 60.2886C33.9059 76.765 44.8902 110.816 51.4807 118.505C59.1697 127.293 65.7602 138.277 80.0398 143.769C92.1225 149.261 102.008 147.064 110.796 148.163C117.386 149.261 143.748 154.753 162.422 151.458C176.701 149.261 194.276 142.671 199.768 139.375C205.26 137.178 219.54 134.982 233.819 125.096Z" fill="#DEE5EA"/>
    <path opacity="0.3333" d="M230.524 122.899C247 110.816 244.803 74.5682 237.114 61.3871C226.13 44.9107 214.047 38.3201 204.162 33.9264C194.276 29.5327 173.406 24.0406 160.225 24.0406C143.748 21.8437 125.075 26.2375 109.697 30.6312C93.2206 35.0249 62.4647 47.1075 50.3821 60.2886C36.1025 75.6666 44.8899 108.619 52.5789 117.407C59.1695 126.194 66.8584 136.08 80.0395 141.572C92.1222 145.966 102.008 144.867 109.697 145.966C116.288 147.064 141.551 153.655 160.225 150.36C174.504 148.163 192.079 140.474 196.473 138.277C203.063 134.982 217.343 132.785 230.524 122.899Z" fill="#D8E0E6"/>
    <path opacity="0.381" d="M227.229 121.8C243.705 110.816 241.508 75.6666 233.819 62.4855C223.933 46.0091 211.851 40.517 200.866 35.0249C192.079 30.6312 171.209 26.2375 159.126 25.139C143.748 22.9422 125.075 26.2375 109.697 30.6312C94.319 35.0249 63.5631 48.206 51.4805 60.2887C38.2993 74.5682 45.9883 106.423 52.5789 115.21C59.1694 123.997 65.76 133.883 78.9411 139.375C91.0238 143.769 100.91 141.572 108.599 142.671C115.189 143.769 139.354 150.36 158.028 147.064C172.307 144.867 188.784 137.178 194.276 134.982C200.866 131.686 214.047 131.686 227.229 121.8Z" fill="#D3DCE3"/>
    <path opacity="0.4286" d="M225.031 120.702C240.409 109.718 239.311 76.765 231.622 62.4855C221.736 46.0091 209.653 40.517 199.768 36.1233C190.98 31.7296 172.307 27.3359 159.126 26.2374C143.748 24.0406 125.075 27.3359 110.795 31.7296C94.3187 36.1233 63.5628 48.206 52.5785 60.2886C39.3974 74.5682 47.0864 105.324 53.677 114.111C60.2675 121.8 65.7596 132.785 80.0392 137.178C92.1219 141.572 102.008 139.375 108.598 140.474C115.189 141.572 137.157 149.261 156.929 145.966C171.208 143.769 186.586 136.08 192.079 132.785C197.571 129.489 211.85 129.489 225.031 120.702Z" fill="#CDD8DF"/>
    <path opacity="0.4762" d="M221.737 118.505C237.115 107.521 236.016 76.765 228.327 62.4855C218.441 46.0091 206.359 40.517 196.473 36.1233C187.685 31.7296 170.111 27.3359 158.028 26.2375C143.748 25.139 125.075 27.3359 109.697 31.7296C94.3192 36.1233 64.6617 49.3044 53.6775 60.2887C41.5948 73.4698 47.0869 103.127 54.7759 111.915C61.3665 119.604 65.7602 129.489 80.0397 134.982C92.1224 139.375 100.91 137.178 108.599 138.277C115.189 139.375 136.059 147.064 155.831 143.769C170.111 141.572 184.39 132.785 189.882 130.588C195.374 127.293 208.555 127.293 221.737 118.505Z" fill="#C8D3DC"/>
    <path opacity="0.5238" d="M218.441 117.407C233.819 107.521 232.721 77.8635 225.032 63.5839C215.146 46.0091 203.063 42.7139 194.276 38.3202C185.488 33.9264 170.11 29.5327 158.028 28.4343C143.748 27.3359 125.075 29.5327 110.795 33.9264C94.319 38.3201 65.76 51.5013 55.8741 61.3871C43.7914 72.3713 48.1851 100.93 55.8741 110.816C61.3663 118.505 65.76 128.391 80.0395 132.785C91.0237 137.178 100.91 133.883 107.5 134.982C114.091 136.08 133.862 144.867 153.634 141.572C167.914 139.375 182.193 130.588 186.587 128.391C192.079 125.096 205.26 126.194 218.441 117.407Z" fill="#C2CFD8"/>
    <path opacity="0.5714" d="M216.244 115.21C231.622 105.324 230.524 76.765 222.835 62.4855C212.949 44.9107 201.965 41.6154 192.079 37.2217C184.39 33.9264 169.012 28.4343 156.929 27.3359C143.748 26.2375 125.075 29.5327 110.796 32.828C94.3192 38.3202 65.7601 50.4028 55.8743 60.2887C44.8901 71.2729 49.2838 99.832 56.9727 109.718C62.4649 116.308 66.8586 126.194 80.0397 131.686C91.0239 134.982 100.91 132.785 106.402 133.883C112.992 134.982 131.666 143.769 151.437 140.474C165.717 138.277 178.898 129.489 183.292 127.293C189.882 122.899 203.063 123.997 216.244 115.21Z" fill="#BDCAD5"/>
    <path opacity="0.619" d="M212.949 114.111C228.327 105.324 228.327 77.8634 220.638 63.5839C211.851 46.0091 199.768 43.8123 189.882 39.4185C182.193 36.1233 169.012 30.6311 156.929 29.5327C143.748 27.3359 125.075 29.5327 110.796 33.9264C95.4177 38.3201 65.7602 51.5012 56.9728 60.2886C47.0869 71.2729 49.2838 97.6351 58.0712 107.521C63.5633 114.111 66.8586 123.997 81.1381 128.391C92.1224 131.686 100.91 128.391 107.5 130.588C114.091 131.686 131.666 141.572 151.437 138.277C165.717 136.08 177.8 127.293 182.193 123.997C187.685 120.702 199.768 121.8 212.949 114.111Z" fill="#B7C6D1"/>
    <path opacity="0.6667" d="M210.752 113.013C225.032 104.226 225.032 78.9619 217.343 64.6824C208.555 47.1076 196.473 44.9107 187.685 40.517C179.996 37.2217 167.914 31.7296 155.831 30.6312C142.65 28.4343 125.075 30.6312 110.795 35.0249C95.4175 39.4186 66.8584 51.5013 59.1695 60.2887C49.2836 70.1745 50.3821 95.4383 59.1695 106.423C64.6616 113.013 66.8584 121.8 81.138 126.194C92.1222 129.489 100.91 126.194 106.402 127.293C111.894 128.391 129.469 138.277 148.142 134.982C163.52 132.785 174.504 122.899 177.799 120.702C184.39 118.505 197.571 120.702 210.752 113.013Z" fill="#B2C2CE"/>
    <path opacity="0.7143" d="M207.456 110.816C221.736 103.127 221.736 78.9619 215.145 64.6823C206.358 47.1075 195.374 46.0091 185.488 41.6154C177.799 38.3201 167.913 33.9264 155.831 31.7296C143.748 29.5327 125.075 31.7296 111.893 36.1233C96.5155 40.517 67.9565 53.6981 60.2675 61.3871C51.4801 70.1745 51.4801 95.4383 61.3659 105.324C65.7596 110.816 66.858 119.604 81.1376 123.997C92.1218 127.293 100.909 123.997 106.401 125.096C111.893 126.194 128.37 137.178 147.043 133.883C162.421 131.686 172.307 121.8 175.602 119.604C182.193 116.308 194.275 118.505 207.456 110.816Z" fill="#ACBDCA"/>
    <path opacity="0.7619" d="M204.162 109.718C218.441 102.029 218.441 80.0603 211.85 64.6824C203.063 47.1075 192.079 46.0091 182.193 42.7138C175.602 39.4186 165.717 33.9264 154.732 31.7296C142.65 29.5327 125.075 31.7296 110.795 35.0249C95.4174 40.517 67.9567 52.5997 61.3662 60.2886C52.5788 67.9776 52.5788 92.143 61.3662 103.127C65.7599 108.619 66.8583 118.505 81.1378 121.8C92.1221 125.096 100.91 120.702 105.303 122.899C110.795 125.096 126.173 134.982 144.847 131.686C160.224 129.489 169.012 119.604 173.406 117.407C178.898 114.111 192.079 116.308 204.162 109.718Z" fill="#A7B9C7"/>
    <path opacity="0.8095" d="M201.965 107.521C215.146 99.8319 216.244 80.0603 209.654 64.6823C200.866 47.1075 189.882 47.1075 181.095 42.7138C174.504 39.4185 166.815 35.0248 154.733 32.828C143.748 30.6311 125.075 31.7296 111.894 36.1233C96.516 40.517 69.0553 53.6981 62.4648 60.2886C54.7758 67.9776 53.6774 89.9461 62.4648 102.029C66.8585 107.521 67.9569 116.308 81.138 120.702C92.1223 123.997 99.8113 119.604 105.303 120.702C110.796 121.8 125.075 132.785 143.748 129.489C159.126 127.293 167.914 116.308 171.209 115.21C176.701 111.915 188.784 114.111 201.965 107.521Z" fill="#A1B5C3"/>
    <path opacity="0.8571" d="M198.67 106.423C211.851 99.832 212.949 81.1587 206.359 65.7808C198.67 48.206 186.587 48.206 177.799 44.9107C171.209 41.6154 164.618 37.2217 153.634 35.0249C142.65 32.828 125.075 33.9264 111.894 38.3201C96.516 41.6154 69.0554 53.6981 63.5632 60.2886C55.8743 66.8792 53.6774 87.7493 63.5632 99.832C67.9569 104.226 67.9569 114.112 82.2365 117.407C92.1223 119.604 100.91 116.308 105.303 117.407C110.796 119.604 122.878 130.588 142.65 127.293C158.028 125.096 165.717 114.112 169.012 111.915C174.504 109.718 185.488 113.013 198.67 106.423Z" fill="#9CB0C0"/>
    <path opacity="0.9048" d="M195.374 104.226C208.555 97.6351 209.654 80.0603 203.063 65.7808C195.374 48.206 184.39 49.3044 175.603 44.9107C169.012 41.6154 163.52 37.2217 152.536 35.0249C142.65 32.828 123.977 33.9264 110.795 37.2217C95.4175 41.6154 69.0553 54.7965 63.5632 59.1902C56.9726 65.7808 53.6773 85.5524 63.5632 97.6351C66.8584 102.029 66.8584 110.816 81.138 115.21C91.0238 117.407 99.8112 113.013 104.205 115.21C109.697 117.407 120.681 128.391 140.453 126.194C155.831 123.997 162.421 113.013 165.717 110.816C171.209 107.521 183.292 110.816 195.374 104.226Z" fill="#96ACBC"/>
    <path opacity="0.9524" d="M193.177 103.127C206.359 97.6351 207.457 81.1587 200.866 65.7808C193.177 48.206 182.193 49.3044 173.406 46.0091C166.815 42.7138 163.52 38.3201 152.536 36.1233C142.65 33.9264 125.075 33.9264 111.894 38.3201C96.516 42.7138 70.1538 55.895 65.7601 60.2887C60.268 65.7808 54.7758 84.454 65.7601 96.5367C69.0554 100.93 67.957 109.718 82.2365 113.013C92.1223 115.21 99.8113 110.816 104.205 111.915C109.697 114.112 119.583 126.194 139.355 122.899C154.733 120.702 160.225 108.619 163.52 107.521C169.012 105.324 179.996 108.619 193.177 103.127Z" fill="#91A7B9"/>
    <path d="M189.882 102.029C201.965 96.5367 204.161 82.2571 197.571 66.8792C189.882 49.3044 178.898 51.5012 170.11 47.1075C163.52 44.9107 161.323 40.517 151.437 37.2217C142.65 35.0249 123.976 35.0249 111.894 39.4186C96.5157 43.8123 71.2519 55.8949 66.8582 60.2886C61.3661 64.6823 55.874 82.2572 66.8582 95.4383C70.1535 98.7335 67.9567 107.521 82.2362 110.816C92.122 113.013 99.811 108.619 103.106 109.718C108.598 111.915 117.386 123.997 136.059 121.8C151.437 119.604 156.929 107.521 159.126 106.423C165.717 103.127 177.799 107.521 189.882 102.029Z" fill="#8BA3B5"/>
  </g>
  <path d="M173.406 42.7139C172.307 42.7139 172.307 42.7139 171.209 42.7139C167.913 32.828 158.028 25.1391 147.043 25.1391C143.748 25.1391 140.453 26.2375 137.158 27.3359C133.862 17.4501 123.976 10.8595 112.992 10.8595C102.008 10.8595 93.2205 17.4501 89.9253 27.3359C88.8268 27.3359 87.7284 27.3359 85.5315 27.3359C73.4489 27.3359 64.6615 36.1233 63.563 47.1076C62.4646 47.1076 60.2678 47.1076 58.0709 47.1076C43.7914 47.1076 32.8071 58.0918 32.8071 72.3714C32.8071 86.6509 43.7914 97.6351 58.0709 97.6351C58.0709 97.6351 58.0709 97.6351 59.1693 97.6351C61.3662 107.521 71.252 115.21 82.2363 115.21C91.0237 115.21 97.6142 110.816 102.008 104.226C107.5 114.112 117.386 119.604 129.469 119.604C142.65 119.604 153.634 111.915 159.126 100.93C163.52 103.127 169.012 105.324 174.504 105.324C190.98 105.324 205.26 92.143 205.26 74.5682C205.26 56.9934 189.882 42.7139 173.406 42.7139Z" fill="white"/>
  <path d="M174.504 43.8123C173.405 43.8123 173.405 43.8123 172.307 43.8123C169.012 33.9264 159.126 26.2374 148.142 26.2374C144.846 26.2374 141.551 27.3359 138.256 28.4343C134.96 18.5485 125.075 11.9579 114.09 11.9579C103.106 11.9579 94.3187 18.5485 91.0234 28.4343C89.925 28.4343 88.8265 28.4343 86.6297 28.4343C74.547 28.4343 65.7596 37.2217 64.6612 48.206C63.5628 48.206 61.3659 48.206 59.1691 48.206C45.988 47.1075 33.9053 58.0918 33.9053 72.3713C33.9053 86.6509 44.8895 97.6351 59.1691 97.6351C59.1691 97.6351 59.1691 97.6351 60.2675 97.6351C62.4643 107.521 72.3502 115.21 83.3344 115.21C92.1218 115.21 98.7124 110.816 103.106 104.226C108.598 114.111 118.484 119.604 130.567 119.604C143.748 119.604 154.732 111.915 160.224 100.93C164.618 103.127 170.11 105.324 175.602 105.324C192.079 105.324 206.358 92.143 206.358 74.5682C204.161 58.0918 190.98 43.8123 174.504 43.8123Z" fill="#E9F2F5"/>
  <g style="mix-blend-mode:multiply">
    <path opacity="0.047619" d="M162.421 87.7493C172.306 73.4697 167.913 46.0091 161.322 36.1233C152.535 22.9422 137.157 21.8437 129.468 17.45C120.68 13.0563 105.302 2.07208 94.3182 2.07208C78.9403 2.07208 71.2513 7.56421 59.1686 10.8595C45.9875 14.1548 24.019 33.9264 11.9363 47.1075C-2.34321 62.4855 0.952071 85.5524 4.24735 91.0445C11.9363 99.8319 19.6253 107.521 30.6096 113.013C40.4954 117.407 49.2828 117.407 56.9718 117.407C62.4639 117.407 69.0544 120.702 84.4324 117.407C95.4167 115.21 99.8104 114.111 105.302 113.013C115.188 109.718 150.338 105.324 162.421 87.7493Z" fill="#F9FBFB"/>
    <path opacity="0.095238" d="M160.224 86.6509C170.11 72.3713 165.716 46.0091 159.126 36.1233C150.338 22.9422 136.059 21.8438 127.271 17.4501C119.582 13.0564 104.204 2.0721 93.2201 0.973679C78.9406 0.973679 70.1532 6.46581 58.0705 8.66266C45.9878 14.1548 24.0193 35.0249 13.035 47.1076C-0.146073 62.4855 0.952353 84.454 5.34606 89.9462C11.9366 97.6351 19.6256 106.423 30.6098 110.816C40.4957 115.21 49.2831 114.112 55.8736 115.21C61.3658 115.21 67.9563 118.505 83.3343 116.308C94.3185 114.112 98.7122 113.013 104.204 111.915C115.189 107.521 148.141 104.226 160.224 86.6509Z" fill="#F4F6F8"/>
    <path opacity="0.1429" d="M159.126 86.6509C169.012 73.4698 164.618 47.1076 158.028 37.2217C149.24 24.0406 134.961 22.9422 126.173 19.6469C118.484 15.2532 103.106 4.26897 93.2205 3.17055C78.941 3.17055 71.252 8.66268 59.1693 11.958C45.9882 15.2532 25.1181 35.0249 14.1338 47.1076C0.952743 61.3871 2.05117 83.3556 6.44487 88.8477C11.937 96.5367 19.626 105.324 30.6102 109.718C40.4961 114.112 49.2835 113.013 55.874 113.013C61.3661 113.013 67.9567 117.407 83.3347 114.112C94.3189 111.915 98.7126 110.816 104.205 109.718C114.091 106.423 147.043 103.127 159.126 86.6509Z" fill="#EEF2F4"/>
    <path opacity="0.1905" d="M156.929 85.5524C166.814 72.3713 163.519 47.1076 156.929 38.3201C148.141 25.139 133.862 25.139 126.173 20.7453C118.484 17.4501 104.204 5.36738 94.3183 4.26895C78.9404 4.26895 70.153 8.66265 59.1687 11.9579C45.9876 15.2532 25.1175 35.0249 15.2317 47.1075C2.05059 60.2887 2.0506 82.2572 6.4443 87.7493C13.0349 95.4383 19.6254 103.127 30.6097 107.521C41.5939 111.915 49.2829 109.718 55.8734 110.816C61.3656 111.915 67.9561 115.21 83.3341 111.915C94.3183 109.718 99.8105 108.619 104.204 107.521C114.09 104.226 144.846 102.029 156.929 85.5524Z" fill="#E9EDF1"/>
    <path opacity="0.2381" d="M154.732 85.5524C164.618 73.4698 161.323 48.206 154.732 39.4186C145.945 26.2375 131.665 26.2375 123.976 21.8438C116.287 18.5485 103.106 5.36739 92.122 5.36739C78.9409 4.26896 70.1535 8.66267 58.0708 11.9579C44.8897 15.2532 25.1181 35.0249 15.2322 46.0091C3.14956 59.1902 2.05114 81.1587 7.54327 86.6509C13.0354 94.3399 20.7244 102.029 31.7086 105.324C42.6929 108.619 50.3819 107.521 55.874 108.619C61.3661 109.718 67.9567 113.013 83.3346 109.718C94.3189 107.521 99.811 105.324 104.205 105.324C112.992 103.127 142.65 99.832 154.732 85.5524Z" fill="#E3E9ED"/>
    <path opacity="0.2857" d="M152.535 84.454C162.421 72.3713 159.126 48.2059 152.535 39.4185C143.748 26.2374 130.567 26.2374 121.779 22.9422C114.09 19.6469 100.909 6.46578 91.0232 6.46578C77.8421 5.36735 69.0547 9.76105 56.972 13.0563C44.8894 16.3516 26.2161 36.1233 16.3303 46.0091C5.34603 58.0918 3.14918 78.9619 8.64131 84.454C13.035 92.143 20.724 99.8319 31.7082 104.226C42.6925 107.521 49.2831 105.324 55.8736 106.422C60.2673 107.521 67.9563 110.816 82.2358 107.521C93.2201 105.324 98.7122 103.127 103.106 103.127C112.992 100.93 141.551 98.7335 152.535 84.454Z" fill="#DEE5EA"/>
    <path opacity="0.3333" d="M151.437 84.454C161.322 72.3713 158.027 49.3044 152.535 40.517C143.748 27.3359 130.567 27.3359 122.878 24.0406C115.189 20.7453 103.106 7.56424 93.2201 7.56424C81.1374 6.46582 71.2516 10.8595 59.1689 14.1548C44.8894 17.4501 26.2161 36.1233 16.3303 46.0091C5.34603 58.0918 3.14918 77.8635 8.64131 84.454C14.1334 91.0446 20.724 98.7336 31.7082 102.029C42.6925 105.324 49.2831 103.127 55.8736 104.226C61.3657 105.324 67.9563 108.619 83.3342 106.423C94.3185 104.226 99.8106 102.029 104.204 100.93C111.893 99.832 139.354 97.6351 151.437 84.454Z" fill="#D8E0E6"/>
    <path opacity="0.381" d="M149.24 84.454C159.126 73.4697 156.929 50.4028 150.338 41.6154C141.551 28.4343 128.37 28.4343 120.681 25.139C114.09 21.8438 100.909 8.66265 91.0232 8.66265C78.9405 7.56422 69.0547 11.9579 56.972 15.2532C44.8893 17.45 26.2161 36.1233 17.4287 46.0091C6.44441 56.9934 3.14914 76.765 8.64127 83.3556C14.1334 89.9461 20.7239 97.6351 30.6098 100.93C41.594 104.226 48.1846 102.029 53.6767 102.029C60.2673 103.127 66.8578 106.423 82.2358 104.226C93.22 102.029 98.7121 99.832 103.106 98.7335C111.893 97.6351 137.157 96.5367 149.24 84.454Z" fill="#D3DCE3"/>
    <path opacity="0.4286" d="M147.043 83.3556C156.929 72.3714 154.732 50.4028 148.141 41.6154C139.354 28.4343 126.173 29.5328 118.484 25.1391C111.893 21.8438 99.8104 8.66268 89.9246 8.66268C77.8419 7.56425 67.9561 10.8595 56.9718 14.1548C44.8891 17.4501 26.2159 37.2217 18.5269 46.0091C8.6411 56.9934 4.2474 75.6666 9.73952 82.2572C15.2317 88.8477 20.7238 95.4383 31.708 98.7336C42.6923 102.029 49.2828 98.7336 54.775 99.832C60.2671 100.93 66.8576 105.324 82.2356 102.029C93.2199 99.832 98.712 97.6351 103.106 96.5367C110.795 96.5367 136.058 95.4383 147.043 83.3556Z" fill="#CDD8DF"/>
    <path opacity="0.4762" d="M144.846 83.3556C154.732 73.4698 152.535 51.5013 147.043 42.7138C138.255 29.5327 125.074 30.6312 117.385 27.3359C110.795 22.9422 99.8106 10.8595 89.9247 9.76108C78.9405 8.66266 67.9562 11.9579 56.972 15.2532C44.8893 18.5485 27.3145 37.2217 18.5271 46.0091C9.73966 55.895 4.24753 73.4698 9.73966 81.1587C14.1334 86.6509 20.7239 94.3399 31.7082 96.5367C42.6924 98.7336 49.283 96.5367 54.7751 96.5367C59.1688 98.7336 66.8578 103.127 82.2357 99.832C93.22 97.6351 98.7121 95.4383 103.106 94.3399C110.795 94.3399 133.862 94.3399 144.846 83.3556Z" fill="#C8D3DC"/>
    <path opacity="0.5238" d="M142.649 82.2572C152.535 72.3714 150.338 51.5013 144.846 42.7139C136.059 29.5328 123.976 30.6312 116.287 27.3359C109.696 24.0406 99.8107 11.958 89.9248 10.8595C78.9406 9.76111 67.9563 13.0564 56.9721 16.3517C44.8894 18.5485 27.3146 37.2217 19.6256 44.9107C10.8382 54.7966 4.24764 72.3714 10.8382 80.0603C15.2319 85.5525 20.724 93.2414 31.7083 95.4383C42.6925 97.6351 49.2831 94.3399 53.6768 95.4383C59.1689 96.5367 66.8579 100.93 81.1374 98.7336C92.1217 96.5367 97.6138 94.3399 102.008 93.2414C109.696 93.2414 131.665 93.2414 142.649 82.2572Z" fill="#C2CFD8"/>
    <path opacity="0.5714" d="M141.551 82.2571C151.436 73.4697 150.338 52.5997 143.747 43.8123C134.96 30.6312 122.877 31.7296 115.188 28.4343C108.598 25.139 98.712 11.9579 88.8262 10.8595C77.8419 9.76107 66.8577 11.9579 55.8734 15.2532C44.8892 19.6469 27.3144 37.2217 20.7238 44.9107C11.9364 53.6981 5.34584 71.2729 11.9364 78.9619C16.3301 84.454 21.8222 91.0445 32.8065 93.2414C43.7907 95.4383 50.3813 92.143 54.775 93.2414C59.1687 94.3398 66.8577 98.7335 81.1372 96.5367C92.1215 94.3398 98.712 91.0446 102.007 91.0446C109.696 91.0446 130.566 92.143 141.551 82.2571Z" fill="#BDCAD5"/>
    <path opacity="0.619" d="M139.354 81.1588C149.24 72.3714 148.142 52.5997 142.65 43.8123C134.961 30.6312 121.779 32.828 114.091 28.4343C107.5 26.2375 98.7126 13.0564 88.8267 11.9579C78.9409 10.8595 66.8582 13.0564 55.874 16.3516C43.7913 19.6469 28.4133 38.3202 20.7243 44.9107C13.0354 53.6981 5.34638 70.1745 11.9369 77.8635C16.3306 83.3556 21.8228 89.9462 32.807 92.143C43.7913 94.3399 50.3818 89.9462 54.7755 91.0446C59.1692 92.143 66.8582 96.5367 81.1377 94.3399C92.122 92.143 98.7125 88.8477 102.008 88.8477C108.598 89.9462 128.37 91.0446 139.354 81.1588Z" fill="#B7C6D1"/>
    <path opacity="0.6667" d="M137.157 81.1588C147.043 73.4698 145.945 53.6981 140.452 46.0091C132.763 32.828 119.582 35.0249 112.992 31.7296C106.401 27.3359 97.6139 14.1548 88.8265 13.0564C78.9406 11.9579 66.8579 14.1548 55.8737 17.4501C43.791 20.7453 28.4131 38.3202 21.8225 44.9107C14.1335 52.5997 5.34612 67.9776 13.0351 76.765C17.4288 81.1588 21.8225 88.8477 32.8068 89.9462C43.791 92.143 49.2831 87.7493 53.6768 88.8477C58.0705 89.9462 65.7595 95.4383 81.1375 92.143C92.1217 89.9462 98.7123 86.6509 102.008 86.6509C108.598 87.7493 126.173 89.9462 137.157 81.1588Z" fill="#B2C2CE"/>
    <path opacity="0.7143" d="M134.96 80.0603C144.846 72.3714 143.748 53.6981 139.354 46.0091C131.665 32.828 119.582 35.0249 111.893 31.7296C105.303 28.4343 96.5155 15.2532 87.7281 14.1548C78.9407 11.958 66.858 14.1548 55.8737 17.4501C43.7911 20.7454 28.4131 38.3202 22.921 44.9107C15.232 51.5013 6.44459 66.8792 13.0351 75.6666C16.3304 80.0603 21.8225 86.6509 32.8068 88.8477C43.7911 89.9462 49.2832 85.5525 53.6769 86.6509C58.0706 87.7493 65.7596 93.2414 81.1375 91.0446C92.1218 88.8477 98.7123 85.5525 102.008 85.5525C107.5 86.6509 125.075 88.8477 134.96 80.0603Z" fill="#ACBDCA"/>
    <path opacity="0.7619" d="M132.764 80.0603C142.65 73.4698 141.551 54.7965 137.157 47.1076C129.468 33.9265 117.386 36.1233 109.697 32.828C104.205 29.5328 96.5157 16.3517 87.7283 14.1548C78.9409 11.958 65.7598 14.1548 55.8739 17.4501C43.7913 21.8438 28.4133 38.3202 22.9212 44.9107C17.429 50.4028 6.44479 65.7808 14.1338 74.5682C17.429 78.9619 21.8227 85.5525 32.807 86.6509C43.7913 87.7493 49.2834 83.3556 53.6771 84.454C58.0708 85.5525 65.7598 91.0446 81.1377 88.8477C93.2204 86.6509 98.7125 83.3556 102.008 83.3556C107.5 84.454 122.878 86.6509 132.764 80.0603Z" fill="#A7B9C7"/>
    <path opacity="0.8095" d="M131.665 78.9619C141.551 72.3713 141.551 54.7965 136.059 47.1075C128.37 33.9264 116.287 36.1233 109.697 33.9264C104.205 31.7296 96.5157 17.4501 87.7283 16.3516C77.8425 14.1548 65.7598 15.2532 55.8739 18.5485C43.7913 21.8438 29.5117 39.4186 24.0196 43.8123C18.5275 50.4028 7.54322 64.6824 14.1338 73.4698C17.429 77.8635 21.8227 83.3556 32.807 84.454C43.7913 85.5524 49.2834 81.1587 52.5787 82.2572C58.0708 83.3556 65.7598 88.8477 80.0393 86.6509C92.122 84.454 97.6141 81.1587 100.909 81.1587C106.402 82.2572 120.681 85.5524 131.665 78.9619Z" fill="#A1B5C3"/>
    <path opacity="0.8571" d="M129.469 78.9619C139.354 73.4698 139.354 55.895 134.961 48.206C127.272 35.0249 115.189 38.3202 108.598 35.0249C102.008 31.7296 95.4173 18.5485 86.6299 16.3516C77.8425 14.1548 65.7599 16.3516 54.7756 18.5485C43.7914 22.9422 29.5118 39.4186 25.1181 43.8123C19.626 49.3044 7.54331 62.4855 15.2323 72.3714C18.5276 75.6666 21.8228 82.2572 33.9055 83.3556C44.8898 84.454 50.3819 78.9619 53.6772 80.0603C58.0709 81.1588 65.7599 87.7493 81.1378 84.454C93.2205 82.2572 98.7126 77.8635 102.008 78.9619C106.402 81.1588 119.583 84.454 129.469 78.9619Z" fill="#9CB0C0"/>
    <path opacity="0.9048" d="M127.271 77.8634C137.157 72.3713 137.157 55.8949 132.763 48.206C125.074 35.0249 112.992 38.3201 106.401 35.0249C100.909 32.828 94.3185 19.6469 86.6295 17.45C77.8421 15.2532 64.661 16.3516 54.7751 19.6469C43.7909 22.9422 29.5113 39.4186 26.2161 43.8123C20.7239 48.206 7.54284 61.3871 15.2318 71.2729C18.5271 74.5682 21.8224 80.0603 33.9051 81.1587C44.8893 82.2571 49.283 76.765 52.5783 77.8634C56.972 78.9619 64.661 85.5524 80.0389 83.3556C92.1216 81.1587 97.6137 76.765 100.909 77.8634C105.303 78.9619 117.385 83.3556 127.271 77.8634Z" fill="#96ACBC"/>
    <path opacity="0.9524" d="M125.075 77.8635C134.96 73.4698 134.96 56.9934 130.567 49.3044C122.878 36.1233 111.893 39.4186 104.204 36.1233C100.909 33.9264 94.3187 20.7453 85.5313 18.5485C77.8423 16.3516 64.6612 17.4501 54.7753 19.6469C43.7911 22.9422 30.61 39.4186 26.2163 42.7138C21.8226 48.206 8.64148 60.2887 16.3305 70.1745C18.5273 73.4698 22.921 78.9619 33.9053 78.9619C45.9879 78.9619 50.3816 73.4698 52.5785 74.5682C56.9722 76.765 64.6612 82.2572 80.0391 80.0603C92.1218 78.9619 97.6139 74.5682 99.8108 75.6666C105.303 77.8635 115.189 82.2572 125.075 77.8635Z" fill="#91A7B9"/>
    <path d="M122.878 76.765C132.763 72.3713 133.862 56.9934 129.468 49.3044C121.779 37.2217 110.795 40.517 104.204 37.2217C99.8107 35.0249 93.2201 21.8438 85.5312 18.5485C77.8422 17.4501 64.6611 17.4501 54.7752 20.7453C43.791 24.0406 30.6099 40.517 27.3146 43.8123C22.9209 47.1075 8.64138 59.1902 16.3304 69.0761C19.6256 71.2729 22.9209 76.765 33.9052 77.8635C45.9878 77.8635 49.2831 72.3713 52.5784 73.4698C56.9721 75.6666 64.6611 81.1587 80.039 78.9619C92.1217 76.765 97.6138 72.3713 99.8107 73.4698C104.204 75.6666 114.09 81.1587 122.878 76.765Z" fill="#8BA3B5"/>
  </g>
  <path d="M114.09 33.9265C111.893 33.9265 108.598 33.9265 106.401 35.0249C103.106 18.5485 89.9247 6.46582 72.3499 5.3674C55.8736 4.26897 41.594 14.1548 36.1019 29.5328C22.9208 28.4343 10.8381 39.4186 9.73969 53.6981C9.73969 66.8792 19.6255 78.9619 33.905 80.0603C41.594 80.0603 48.1846 77.8635 52.5783 73.4698C56.972 75.6666 63.5625 77.8635 69.0547 77.8635C80.0389 78.9619 89.9247 74.5682 96.5153 66.8792C99.8106 72.3714 105.303 75.6666 111.893 75.6666C123.976 76.7651 133.862 66.8792 133.862 55.895C134.96 43.8123 126.173 33.9265 114.09 33.9265Z" fill="white"/>
</svg>
