<svg width="32" height="32" viewBox="0 0 32 32" xmlns="http://www.w3.org/2000/svg">
<path d="M30.5363 15.355C28.9868 9.16 23.7398 4.705 17.4998 4.0825V1H14.4998V4.0825C8.25982 4.705 3.01282 9.16 1.46332 15.355C1.32382 15.913 1.51582 16.504 1.95982 16.8715C2.40382 17.239 3.01732 17.3215 3.54232 17.0845C7.07332 15.475 11.1953 15.73 14.4953 17.635V27.25C14.4953 29.3185 16.1783 31 18.2453 31C20.3123 31 21.9953 29.3185 21.9953 27.25V26.5H18.9953V27.25C18.9953 27.664 18.6593 28 18.2453 28C17.8313 28 17.4953 27.664 17.4953 27.25V17.6425C20.7968 15.7315 24.9263 15.472 28.4603 17.0845C28.9838 17.323 29.5988 17.2405 30.0428 16.8715C30.4868 16.5025 30.6758 15.913 30.5363 15.355ZM15.9998 15.01C13.7243 13.693 11.1518 13 8.49982 13C7.46482 13 6.44182 13.1065 5.43982 13.318C7.49032 9.4915 11.5013 7 15.9998 7C20.4983 7 24.5093 9.4915 26.5598 13.318C22.9943 12.5665 19.1633 13.1785 15.9998 15.01Z" />
</svg>
