<svg width="230" height="196" viewBox="0 0 230 196" fill="none" xmlns="http://www.w3.org/2000/svg">
<g style="mix-blend-mode:multiply">
<path d="M189.837 109.261C196.565 146.262 171.897 181.021 134.896 187.748C97.895 194.476 63.1363 169.808 56.4089 132.807C49.6814 95.806 74.3488 61.0474 111.35 54.3199C148.351 47.5924 184.231 72.2598 189.837 109.261Z" fill="url(#paint0_radial_2_2341)"/>
</g>
<g style="mix-blend-mode:multiply">
<path d="M222.353 70.0173C230.202 114.867 199.929 158.596 153.957 166.445C109.107 174.293 65.3788 144.02 57.5301 98.0485C49.6814 53.1986 79.9551 9.46998 125.926 1.62125C170.776 -6.22748 214.505 24.0462 222.353 70.0173Z" fill="url(#paint1_radial_2_2341)"/>
</g>
<g style="mix-blend-mode:multiply">
<path d="M227.96 98.0485C235.808 142.898 205.535 186.627 160.685 194.476C115.835 202.325 72.1063 172.051 64.2576 127.201C56.4089 82.3511 86.6825 38.6224 131.532 30.7737C176.382 22.925 220.111 53.1986 227.96 98.0485Z" fill="url(#paint2_radial_2_2341)"/>
</g>
<g style="mix-blend-mode:multiply" opacity="0.7">
<path d="M165.052 94.8025C172.901 139.652 142.627 183.381 97.7773 191.23C52.9274 199.078 9.19878 168.805 1.35005 123.955C-6.49869 79.105 23.775 35.3764 68.6249 27.5276C113.475 19.6789 157.203 49.9526 165.052 94.8025Z" fill="url(#paint3_radial_2_2341)"/>
</g>
<path d="M156.2 50.9561L62.0151 146.262C62.0151 146.262 60.8938 146.262 59.7726 146.262C58.6514 146.262 58.6514 146.262 57.5301 145.141C56.4089 144.02 56.4089 141.777 57.5301 140.656L151.715 46.4711C152.836 45.3499 155.079 45.3499 156.2 46.4711C157.321 48.7136 157.321 49.8349 156.2 50.9561Z" fill="white"/>
<path d="M155.079 66.6536C153.957 67.7748 151.715 67.7748 150.594 66.6536L136.017 53.1986C134.896 52.0774 134.896 49.8349 136.017 48.7136C137.139 47.5924 139.381 47.5924 140.502 48.7136L153.957 62.1686C156.2 63.2898 156.2 65.5323 155.079 66.6536Z" fill="white"/>
<path d="M77.7126 144.02C76.5913 145.141 74.3488 145.141 73.2276 144.02L59.7726 130.565C58.6514 129.443 58.6514 127.201 59.7726 126.08C60.8939 124.958 63.1363 124.958 64.2576 126.08L77.7126 139.535C78.8338 140.656 78.8338 142.898 77.7126 144.02Z" fill="white"/>
<path d="M156.2 145.141C156.2 146.262 155.079 146.262 153.957 146.262C152.836 146.262 152.836 146.262 151.715 145.141L57.5301 52.0774C56.4089 50.9561 56.4089 48.7136 57.5301 47.5924C58.6514 46.4711 58.6514 46.4711 59.7726 46.4711C60.8938 46.4711 60.8938 46.4711 62.0151 47.5924L156.2 141.777C157.321 142.898 157.321 144.02 156.2 145.141Z" fill="white"/>
<path d="M155.079 129.443C155.079 129.443 155.079 130.565 155.079 129.443L140.502 144.02C139.381 145.141 139.381 145.141 138.26 145.141C137.139 145.141 137.139 145.141 136.017 144.02C134.896 142.898 134.896 140.656 136.017 139.535L149.472 126.08C150.594 124.958 150.594 124.958 151.715 124.958C152.836 124.958 152.836 124.958 153.957 126.08C156.2 127.201 156.2 128.322 155.079 129.443Z" fill="white"/>
<path d="M77.7126 53.1986L64.2576 66.6536C63.1363 67.7748 62.0151 67.7748 62.0151 67.7748C60.8939 67.7748 59.7726 67.7748 59.7726 66.6536C58.6514 65.5323 58.6514 63.2898 59.7726 62.1686L73.2276 48.7136C74.3488 47.5924 74.3488 47.5924 75.4701 47.5924C76.5913 47.5924 76.5913 47.5924 77.7126 48.7136C78.8338 49.8349 78.8338 52.0774 77.7126 53.1986Z" fill="white"/>
<path d="M109.107 165.323C107.986 166.445 107.986 166.445 106.865 166.445C105.744 166.445 105.744 166.445 104.622 165.323C103.501 164.202 103.501 164.202 103.501 163.081V29.6524C103.501 28.5312 103.501 28.5312 104.622 27.4099C104.622 27.4099 105.744 26.2887 106.865 26.2887C107.986 26.2887 107.986 26.2887 109.107 27.4099C110.229 28.5312 110.229 28.5312 110.229 29.6524V163.081C110.229 164.202 110.229 164.202 109.107 165.323Z" fill="white"/>
<path d="M119.199 152.99C118.077 154.111 118.077 154.111 116.956 154.111H97.895C96.7738 154.111 96.7738 154.111 95.6525 152.99C94.5313 151.868 94.5313 151.868 94.5313 150.747C94.5313 149.626 94.5313 149.626 95.6525 148.505C96.7738 147.383 96.7738 147.383 97.895 147.383H116.956C118.077 147.383 118.077 147.383 119.199 148.505C120.32 149.626 120.32 149.626 120.32 150.747C120.32 151.868 120.32 151.868 119.199 152.99Z" fill="white"/>
<path d="M119.199 44.2286C118.077 45.3499 118.077 45.3499 116.956 45.3499H96.7738C95.6525 45.3499 94.5313 44.2286 94.5313 41.9861C94.5313 40.8649 94.5313 40.8649 95.6525 39.7437C96.7738 38.6224 96.7738 38.6224 97.895 38.6224H116.956C118.077 38.6224 118.077 38.6224 119.199 39.7437C120.32 40.8649 120.32 40.8649 120.32 41.9861C120.32 43.1074 119.199 43.1074 119.199 44.2286Z" fill="white"/>
<path d="M176.382 98.0485C175.261 99.1698 175.261 99.1698 174.14 99.1698H40.7114C39.5902 99.1698 39.5902 99.1698 38.4689 98.0485C37.3477 98.0485 37.3477 96.9273 37.3477 96.9273C37.3477 95.806 37.3477 95.806 38.4689 94.6848C39.5902 93.5635 39.5902 93.5635 40.7114 93.5635H174.14C175.261 93.5635 175.261 93.5635 176.382 94.6848C177.504 95.806 177.504 95.806 177.504 96.9273C176.382 96.9273 176.382 98.0485 176.382 98.0485Z" fill="white"/>
<path d="M55.2876 108.14C54.1664 109.261 53.0451 109.261 53.0451 109.261C51.9239 109.261 51.9239 109.261 50.8026 108.14C49.6814 108.14 49.6814 107.018 49.6814 105.897V86.836C49.6814 85.7148 49.6814 85.7148 50.8026 84.5936C51.9239 83.4723 51.9239 83.4723 53.0451 83.4723C54.1664 83.4723 54.1664 83.4723 55.2876 84.5936C56.4089 85.7148 56.4089 85.7148 56.4089 86.836V105.897C55.2876 107.018 55.2876 108.14 55.2876 108.14Z" fill="white"/>
<path d="M164.049 108.14C162.927 109.261 162.927 109.261 161.806 109.261C160.685 109.261 160.685 109.261 159.564 108.14C158.442 107.019 158.442 107.018 158.442 105.897V86.836C158.442 85.7148 158.442 85.7148 159.564 84.5936C160.685 83.4723 160.685 83.4723 161.806 83.4723C162.927 83.4723 162.927 83.4723 164.049 84.5936C165.17 85.7148 165.17 85.7148 165.17 86.836V105.897C164.049 107.018 164.049 107.019 164.049 108.14Z" fill="white"/>
<path d="M136.017 123.837C136.017 124.958 134.896 124.958 136.017 123.837C134.896 124.958 133.775 124.958 133.775 124.958L119.199 122.716L109.107 135.05C109.107 136.171 107.986 136.171 106.865 136.171C105.744 136.171 104.622 136.171 104.622 135.05L95.6525 122.716L81.0763 124.958C79.9551 124.958 78.8338 124.958 78.8338 123.837C77.7126 122.716 77.7126 122.716 77.7126 121.595L79.9551 107.018L68.7426 99.1698C67.6213 99.1698 67.6213 98.0485 67.6213 96.9273C67.6213 95.806 67.6213 95.806 67.6213 95.806C67.6213 95.806 67.6213 95.806 68.7426 94.6848L81.0763 85.7148L77.7126 71.1386C77.7126 70.0173 77.7126 70.0173 77.7126 68.8961C79.9551 67.7748 79.9551 67.7748 81.0763 67.7748L95.6525 70.0173C104.622 57.6836 104.622 57.6836 104.622 57.6836C105.744 56.5624 105.744 56.5624 106.865 56.5624C107.986 56.5624 109.107 56.5624 109.107 57.6836L118.077 70.0173L132.654 67.7748C133.775 67.7748 134.896 67.7748 134.896 67.7748C136.017 68.8961 136.017 68.8961 136.017 70.0173L133.775 85.7148L146.109 94.6848C146.109 94.6848 146.109 94.6848 147.23 94.6848C148.351 95.806 148.351 96.9273 147.23 98.0485L133.775 107.018L136.017 121.595C136.017 122.716 136.017 123.837 136.017 123.837ZM114.714 118.231C115.835 117.11 116.956 117.11 116.956 117.11L129.29 119.352L128.169 107.018C128.169 105.897 128.169 105.897 128.169 104.776C128.169 104.776 128.169 104.776 129.29 103.655L139.381 95.806L129.29 89.0785C128.169 87.9573 128.169 86.836 128.169 86.836L130.411 74.5023L116.956 75.6236C115.835 75.6236 114.714 75.6236 114.714 74.5023L106.865 64.4111L99.0163 74.5023C99.0163 75.6236 97.895 75.6236 96.7738 75.6236L84.44 73.3811L86.6825 85.7148C86.6825 86.836 86.6825 86.836 86.6825 87.9573C86.6825 87.9573 86.6825 87.9573 85.5613 89.0785L74.3488 96.9273L84.44 104.776C85.5613 105.897 85.5613 105.897 85.5613 107.018L83.3188 119.352L95.6525 117.11C96.7738 117.11 97.895 117.11 97.895 118.231L105.744 128.322L114.714 118.231Z" fill="white"/>
<path d="M155.079 117.11C155.079 117.11 153.957 117.11 155.079 117.11C153.957 118.231 153.957 118.231 153.957 118.231L133.775 122.716L129.29 142.898V144.02L128.169 145.141C127.047 145.141 125.926 145.141 125.926 145.141L109.107 133.928L92.2888 145.141C91.1675 145.141 90.0463 145.141 90.0463 145.141C88.925 145.141 88.925 144.02 88.925 142.898L84.44 122.716L64.2576 118.231C63.1363 118.231 63.1363 117.11 62.0151 117.11C62.0151 115.988 62.0151 114.867 62.0151 114.867L73.2276 98.0485L59.7726 78.9873C59.7726 77.8661 59.7726 76.7448 59.7726 76.7448C59.7726 76.7448 59.7726 76.7448 59.7726 75.6236L60.8938 74.5023L81.0763 70.0173L85.5613 49.8349V48.7136L86.6825 47.5924C87.8038 47.5924 88.925 47.5924 88.925 47.5924L105.744 58.8048L122.562 47.5924C123.684 47.5924 124.805 47.5924 124.805 47.5924C125.926 47.5924 125.926 48.7136 125.926 49.8349L130.411 70.0173L150.594 74.5023C151.715 74.5023 151.715 75.6236 152.836 75.6236C152.836 76.7448 152.836 77.8661 152.836 77.8661L141.624 94.6848L152.836 111.503C155.079 114.867 155.079 115.988 155.079 117.11C155.079 117.11 155.079 115.988 155.079 117.11ZM128.169 118.231L129.29 117.11L147.23 112.625L138.26 98.0485C138.26 96.9273 138.26 95.806 138.26 94.6848L148.351 78.9873L130.411 75.6236C129.29 75.6236 128.169 74.5023 128.169 73.3811L123.684 55.4411L107.986 65.5323C106.865 65.5323 105.744 66.6536 104.622 65.5323L90.0463 55.4411L85.5613 73.3811V74.5023L84.44 75.6236L66.5001 80.1085L76.5913 95.806C76.5913 96.9273 77.7126 98.0485 76.5913 99.1698L66.5001 114.867L84.44 119.352C85.5613 119.352 86.6825 120.473 86.6825 121.595L91.1675 139.535L106.865 129.443C107.986 129.443 109.107 129.443 110.229 129.443L125.926 139.535L128.169 118.231C128.169 119.352 128.169 119.352 128.169 118.231Z" fill="white"/>
<path d="M158.442 50.9561L64.2576 145.141C63.1363 146.262 62.0151 146.262 62.0151 146.262C60.8939 146.262 59.7726 146.262 59.7726 145.141C58.6514 144.02 58.6514 141.777 59.7726 140.656L153.957 46.4712C155.079 45.3499 157.321 45.3499 158.442 46.4712C158.442 47.5924 158.442 49.8349 158.442 50.9561Z" fill="#E1F0FA"/>
<path d="M156.2 66.6536C155.079 67.7749 152.836 67.7749 151.715 66.6536L138.26 53.1986C137.139 52.0774 137.139 49.8349 138.26 48.7136C139.381 47.5924 141.624 47.5924 142.745 48.7136L156.2 62.1686C157.321 63.2899 157.321 64.4111 156.2 66.6536Z" fill="#E1F0FA"/>
<path d="M79.9551 142.898C79.9551 142.898 78.8338 142.898 79.9551 142.898C78.8338 144.02 76.5913 144.02 75.4701 142.898L62.0151 129.443C60.8939 128.322 60.8939 126.08 62.0151 124.958C63.1363 123.837 65.3788 123.837 66.5001 124.958L79.9551 138.413C79.9551 140.656 79.9551 141.777 79.9551 142.898Z" fill="#E1F0FA"/>
<path d="M158.442 145.141C157.321 146.262 156.2 146.262 156.2 146.262C155.079 146.262 155.079 146.262 153.957 145.141L58.6514 50.9561C57.5301 49.8349 57.5301 47.5924 58.6514 46.4711C59.7726 46.4711 60.8939 45.3499 60.8939 45.3499C60.8939 45.3499 62.0151 45.3499 63.1363 46.4711L157.321 140.656C158.442 141.777 159.564 144.02 158.442 145.141Z" fill="#E1F0FA"/>
<path d="M156.2 129.443L141.624 144.02C140.502 145.141 140.502 145.141 139.381 145.141C138.26 145.141 138.26 145.141 137.139 144.02C136.017 142.898 136.017 140.656 137.139 139.535L150.594 126.08C151.715 124.958 151.715 124.958 152.836 124.958C153.957 124.958 153.957 124.958 155.079 126.08C157.321 126.08 157.321 128.322 156.2 129.443Z" fill="#E1F0FA"/>
<path d="M79.9551 52.0774C78.8338 52.0774 78.8338 53.1986 79.9551 52.0774L65.3788 66.6536C64.2576 66.6536 64.2576 67.7748 63.1363 67.7748C62.0151 67.7748 62.0151 67.7748 60.8939 66.6536C59.7726 65.5324 59.7726 63.2899 60.8939 62.1686L74.3488 48.7136C75.4701 47.5924 75.4701 47.5924 76.5913 47.5924C77.7126 47.5924 77.7126 47.5924 78.8338 48.7136C79.9551 49.8349 79.9551 50.9561 79.9551 52.0774Z" fill="#E1F0FA"/>
<path d="M111.35 164.202C110.229 165.323 110.229 165.323 109.107 165.323C107.986 165.323 107.986 165.323 106.865 164.202C105.744 163.081 105.744 163.081 105.744 161.96V28.5312C105.744 27.4099 105.744 27.4099 106.865 26.2887C107.986 25.1674 107.986 25.1674 109.107 25.1674C110.229 25.1674 110.229 25.1674 111.35 26.2887C112.471 27.4099 112.471 27.4099 112.471 28.5312V161.96C111.35 163.081 111.35 164.202 111.35 164.202Z" fill="#E1F0FA"/>
<path d="M120.32 151.868C120.32 151.868 120.32 152.99 120.32 151.868C119.199 152.99 119.199 152.99 118.077 152.99H99.0163C97.895 152.99 97.895 152.99 96.7738 151.868C95.6525 150.747 95.6525 150.747 95.6525 149.626C95.6525 148.505 95.6525 148.505 96.7738 147.383C97.895 146.262 97.895 146.262 99.0163 146.262H118.077C119.199 146.262 119.199 146.262 120.32 147.383C121.441 148.505 121.441 148.505 121.441 149.626C121.441 150.747 121.441 151.868 120.32 151.868Z" fill="#E1F0FA"/>
<path d="M120.32 43.1074C120.32 44.2287 119.199 44.2287 118.077 44.2287H99.0163C96.7738 44.2287 95.6525 43.1074 95.6525 40.8649C95.6525 39.7437 95.6525 39.7437 96.7738 38.6224C97.895 37.5012 97.895 37.5012 99.0163 37.5012H118.077C119.199 37.5012 119.199 37.5012 120.32 38.6224C121.441 39.7437 121.441 39.7437 121.441 40.8649C121.441 41.9862 121.441 43.1074 120.32 43.1074Z" fill="#E1F0FA"/>
<path d="M177.504 98.0485C176.382 99.1698 176.382 99.1698 175.261 99.1698H41.8326C40.7114 99.1698 40.7114 99.1698 39.5902 98.0485C39.5902 98.0485 38.4689 96.9273 38.4689 95.806C38.4689 94.6848 38.4689 94.6848 39.5902 93.5635C40.7114 92.4423 40.7114 92.4423 41.8326 92.4423H175.261C176.382 92.4423 176.382 92.4423 177.504 93.5635C178.625 94.6848 178.625 94.6848 178.625 95.806C178.625 96.9273 177.504 96.9273 177.504 98.0485Z" fill="#E1F0FA"/>
<path d="M56.4089 108.14C55.2876 108.14 55.2876 109.261 54.1664 109.261C53.0451 109.261 53.0451 109.261 51.9239 108.14C50.8026 107.019 50.8026 107.019 50.8026 105.897V86.8361C50.8026 85.7148 50.8026 85.7148 51.9239 84.5936C53.0451 83.4723 53.0451 83.4723 54.1664 83.4723C55.2876 83.4723 55.2876 83.4723 56.4089 84.5936C57.5301 85.7148 57.5301 85.7148 57.5301 86.8361V105.897C57.5301 105.897 57.5301 107.019 56.4089 108.14Z" fill="#E1F0FA"/>
<path d="M165.17 107.019C165.17 108.14 165.17 108.14 165.17 107.019C164.049 108.14 164.049 108.14 162.927 108.14C161.806 108.14 161.806 108.14 160.685 107.019C159.564 105.897 159.564 105.897 159.564 104.776V85.7148C159.564 84.5936 159.564 84.5936 160.685 83.4723C161.806 82.3511 161.806 82.3511 162.927 82.3511C164.049 82.3511 164.049 82.3511 165.17 83.4723C166.291 84.5936 166.291 84.5936 166.291 85.7148V104.776C166.291 105.897 166.291 107.019 165.17 107.019Z" fill="#E1F0FA"/>
<path d="M137.139 123.837C136.017 124.958 134.896 124.958 134.896 124.958L120.32 122.716L111.35 135.05C111.35 136.171 110.229 136.171 109.107 136.171C107.986 136.171 106.865 136.171 106.865 135.05L97.895 122.716L83.3188 124.958C82.1976 124.958 81.0763 124.958 81.0763 123.837C79.9551 122.716 79.9551 122.716 79.9551 121.595L82.1976 107.019L69.8638 98.0485C68.7426 98.0485 68.7426 96.9273 68.7426 95.806C68.7426 94.6848 68.7426 94.6848 68.7426 93.5635C68.7426 93.5635 68.7426 93.5635 69.8638 92.4423L82.1976 84.5936L79.9551 70.0173C79.9551 68.8961 79.9551 68.8961 79.9551 67.7749C81.0763 66.6536 82.1976 66.6536 82.1976 66.6536L96.7738 68.8961C105.744 56.5624 105.744 56.5624 105.744 56.5624C106.865 56.5624 107.986 56.5624 107.986 56.5624C109.107 56.5624 110.229 56.5624 110.229 57.6836L119.199 70.0173L133.775 67.7749C134.896 67.7749 136.017 67.7749 136.017 68.8961C137.139 70.0173 137.139 70.0173 137.139 71.1386L134.896 84.5936L147.23 93.5635C147.23 93.5635 147.23 93.5635 148.351 93.5635C149.472 94.6848 149.472 95.806 148.351 96.9273L134.896 107.019L137.139 121.595C137.139 122.716 137.139 122.716 137.139 123.837ZM115.835 118.231C115.835 118.231 115.835 117.11 115.835 118.231C116.956 117.11 118.077 117.11 118.077 117.11L130.411 119.352L129.29 105.897C129.29 104.776 129.29 104.776 129.29 103.655C129.29 103.655 129.29 103.655 130.411 102.534L140.502 94.6848L130.411 87.9573C129.29 87.9573 129.29 86.8361 129.29 85.7148L131.532 73.3811L119.199 75.6236C118.077 75.6236 116.956 75.6236 116.956 74.5023L107.986 63.2899L101.259 74.5023C100.138 74.5023 99.0163 75.6236 97.895 75.6236L85.5613 73.3811L87.8038 85.7148C87.8038 86.8361 87.8038 86.8361 87.8038 87.9573C87.8038 87.9573 87.8038 87.9573 86.6825 89.0786L76.5913 95.806L86.6825 103.655C87.8038 104.776 87.8038 104.776 87.8038 105.897L85.5613 118.231L97.895 115.988C99.0163 115.988 100.138 115.988 100.138 117.11L107.986 127.201L115.835 118.231Z" fill="#E1F0FA"/>
<path d="M156.2 115.988C156.2 115.988 156.2 117.11 156.2 115.988C155.079 117.11 155.079 117.11 155.079 117.11L134.896 121.595L130.411 141.777V142.898L129.29 144.02C128.169 144.02 127.047 144.02 127.047 144.02L110.229 132.807L93.41 144.02C92.2888 144.02 91.1675 144.02 91.1675 144.02C90.0463 144.02 90.0463 142.898 90.0463 141.777L82.1976 122.716L62.0151 118.231C60.8939 118.231 60.8939 117.11 59.7726 117.11C59.7726 115.988 59.7726 114.867 59.7726 114.867L70.9851 98.0485L60.8939 78.9873C60.8939 77.8661 60.8939 76.7448 60.8939 76.7448C60.8939 76.7448 60.8939 76.7448 60.8939 75.6236L62.0151 74.5023L82.1976 70.0173L86.6825 49.8349V48.7136L87.8038 47.5924C88.925 47.5924 90.0463 47.5924 90.0463 47.5924L106.865 58.8049L123.684 47.5924C124.805 47.5924 125.926 47.5924 125.926 47.5924C127.047 47.5924 127.047 48.7136 127.047 49.8349L131.532 70.0173L151.715 74.5023C152.836 74.5023 152.836 75.6236 153.957 75.6236C153.957 76.7448 153.957 77.8661 153.957 77.8661L142.745 94.6848L153.957 111.503C156.2 113.746 157.321 114.867 156.2 115.988ZM130.411 118.231L131.532 117.11L149.472 112.625L139.381 96.9273C139.381 95.806 139.381 94.6848 139.381 93.5635L149.472 78.9873L131.532 74.5023C130.411 74.5023 129.29 73.3811 129.29 72.2598L125.926 55.4411L110.229 64.4111C109.107 64.4111 107.986 64.4111 106.865 64.4111L91.1675 55.4411L87.8038 72.2598V73.3811L86.6825 74.5023L67.6213 78.9873L77.7126 94.6848C78.8338 95.806 78.8338 96.9273 77.7126 98.0485L67.6213 112.625L85.5613 117.11C86.6825 117.11 87.8038 118.231 87.8038 119.352L92.2888 137.292L107.986 127.201C109.107 127.201 110.229 127.201 111.35 127.201L127.047 137.292L130.411 118.231C130.411 118.231 129.29 118.231 130.411 118.231Z" fill="#E1F0FA"/>
<defs>
<radialGradient id="paint0_radial_2_2341" cx="0" cy="0" r="1" gradientUnits="userSpaceOnUse" gradientTransform="translate(123.298 121.134) rotate(-9.75807) scale(67.8166)">
<stop stop-color="#AED5EB"/>
<stop offset="0.186" stop-color="#C0DEEF"/>
<stop offset="0.694" stop-color="#EEF6FB"/>
<stop offset="0.95" stop-color="white"/>
</radialGradient>
<radialGradient id="paint1_radial_2_2341" cx="0" cy="0" r="1" gradientUnits="userSpaceOnUse" gradientTransform="translate(140.077 83.7685) rotate(-9.75807) scale(83.2595)">
<stop stop-color="#AED5EB"/>
<stop offset="0.186" stop-color="#C0DEEF"/>
<stop offset="0.694" stop-color="#EEF6FB"/>
<stop offset="0.95" stop-color="white"/>
</radialGradient>
<radialGradient id="paint2_radial_2_2341" cx="0" cy="0" r="1" gradientUnits="userSpaceOnUse" gradientTransform="translate(145.523 112.359) rotate(-9.75807) scale(83.1081)">
<stop stop-color="#AED5EB"/>
<stop offset="0.186" stop-color="#C0DEEF"/>
<stop offset="0.694" stop-color="#EEF6FB"/>
<stop offset="0.95" stop-color="white"/>
</radialGradient>
<radialGradient id="paint3_radial_2_2341" cx="0" cy="0" r="1" gradientUnits="userSpaceOnUse" gradientTransform="translate(82.6152 109.113) rotate(-9.75807) scale(83.1081)">
<stop stop-color="#AED5EB"/>
<stop offset="0.186" stop-color="#C0DEEF"/>
<stop offset="0.694" stop-color="#EEF6FB"/>
<stop offset="0.95" stop-color="white"/>
</radialGradient>
</defs>
</svg>
