<svg width="35" height="47" viewBox="0 0 35 47" fill="none" xmlns="http://www.w3.org/2000/svg">
<path d="M1.42213 0.664794C0.881945 0.715631 0.469376 1.1706 0.471997 1.71333V41.565C0.473826 41.8587 0.598544 42.1377 0.816153 42.3352L5.5348 46.5302C5.74254 46.7189 6.01719 46.8162 6.29735 46.8009C6.5775 46.7855 6.8401 46.6586 7.02588 46.4483L9.90971 43.1545L12.7935 46.4483H12.7932C12.9925 46.6739 13.2789 46.8031 13.5799 46.8031C13.8808 46.8031 14.1672 46.6739 14.3662 46.4483L17.25 43.1545L20.1338 46.4483C20.3328 46.6739 20.6192 46.8031 20.9201 46.8031C21.2211 46.8031 21.5075 46.6739 21.7068 46.4483L24.5907 43.1545L27.4745 46.4483H27.4741C27.6599 46.6586 27.9225 46.7855 28.2026 46.8009C28.4828 46.8162 28.7575 46.7189 28.9652 46.5302L33.6838 42.3352C33.9015 42.1377 34.0262 41.8587 34.028 41.565V1.71333C34.028 1.13437 33.5584 0.664794 32.9795 0.664794H1.52059C1.48767 0.663331 1.45512 0.663331 1.4222 0.664794H1.42213ZM2.56907 2.76224H31.9307V41.0896L28.359 44.2686L25.3768 40.8603C25.1774 40.6343 24.8911 40.5052 24.5901 40.5052C24.2894 40.5052 24.0027 40.6343 23.8037 40.8603L20.9199 44.1542L18.0361 40.8603C17.8371 40.6343 17.5508 40.5052 17.2498 40.5052C16.9488 40.5052 16.6624 40.6343 16.4635 40.8603L13.5796 44.1542L10.6958 40.8603C10.4968 40.6343 10.2101 40.5052 9.90948 40.5052C9.60849 40.5052 9.32212 40.6343 9.1228 40.8603L6.14057 44.2686L2.56886 41.0896L2.56907 2.76224ZM17.2499 4.85969C11.1813 4.85969 6.23927 9.80219 6.23927 15.8712C6.23927 21.9403 11.1814 26.8828 17.2499 26.8828C23.3184 26.8828 28.2605 21.9403 28.2605 15.8712C28.2605 9.80219 23.3184 4.85969 17.2499 4.85969V4.85969ZM17.2499 6.95713C22.1851 6.95713 26.1631 10.9356 26.1631 15.8711C26.1631 20.8067 22.1851 24.7851 17.2499 24.7851C12.3147 24.7851 8.33662 20.8067 8.33662 15.8711C8.33662 10.9356 12.3147 6.95713 17.2499 6.95713V6.95713ZM17.135 9.03819C16.5949 9.09744 16.1896 9.55973 16.2013 10.1032V10.6767C14.6718 10.9338 13.5797 12.291 13.5797 13.7737C13.5797 15.561 15.2545 16.9198 17.2498 16.9198C18.4187 16.9198 18.8229 17.4318 18.8229 17.9683C18.8229 18.6453 18.5588 19.0168 17.7744 19.0168H14.6283V19.0172C14.3478 19.0135 14.0771 19.1222 13.8771 19.3193C13.6774 19.5164 13.5647 19.7852 13.5647 20.0661C13.5647 20.3466 13.6774 20.6158 13.8771 20.813C14.0771 21.0101 14.3478 21.1187 14.6283 21.1147H16.2013V21.6392C16.1973 21.92 16.3059 22.1903 16.503 22.3904C16.7002 22.5904 16.969 22.7027 17.2499 22.7027C17.5308 22.7027 17.7996 22.5904 17.9967 22.3904C18.1938 22.1903 18.3025 21.92 18.2984 21.6392V21.0657C19.8268 20.8078 20.92 19.451 20.92 17.9687C20.92 16.1813 19.2453 14.8223 17.2499 14.8226C16.0811 14.8226 15.6769 14.3106 15.6769 13.7741C15.6769 13.0971 15.9409 12.7255 16.7254 12.7255H19.8715V12.7252C20.1524 12.7292 20.4226 12.6202 20.6227 12.4231C20.8227 12.2259 20.935 11.9571 20.935 11.6762C20.935 11.3957 20.8227 11.1265 20.6227 10.9294C20.4226 10.7323 20.1524 10.6237 19.8715 10.6277H18.2984V10.1032C18.305 9.80111 18.181 9.51109 17.9583 9.30701C17.7352 9.10293 17.4353 9.00491 17.135 9.03819H17.135ZM10.3353 28.9799C10.0574 28.9931 9.79588 29.116 9.60826 29.3219C9.421 29.5278 9.32298 29.7999 9.33615 30.0779C9.36322 30.6572 9.85476 31.1049 10.4337 31.0774H24.0659C24.3464 31.0815 24.6171 30.9725 24.8168 30.7757C25.0165 30.5786 25.1291 30.3094 25.1291 30.0289C25.1291 29.7484 25.0165 29.4792 24.8168 29.282C24.6171 29.0849 24.3464 28.9763 24.0659 28.9799H10.4337C10.4012 28.9785 10.3683 28.9785 10.3354 28.9799H10.3353ZM10.3353 34.2235V34.2238C10.0574 34.2366 9.79588 34.3599 9.60826 34.5658C9.421 34.7717 9.32298 35.0434 9.33615 35.3217C9.36322 35.9007 9.85476 36.3484 10.4337 36.3213H24.0659C24.3464 36.325 24.6171 36.2164 24.8168 36.0192C25.0165 35.8221 25.1291 35.5533 25.1291 35.2724C25.1291 34.9919 25.0165 34.7227 24.8168 34.5259C24.6171 34.3288 24.3464 34.2198 24.0659 34.2238H10.4337C10.4012 34.2224 10.3683 34.2224 10.3354 34.2238L10.3353 34.2235Z" fill="#B2B09D"/>
</svg>
