<svg width="29" height="46" viewBox="0 0 29 46" fill="none" xmlns="http://www.w3.org/2000/svg">
<path d="M12.4321 45.7309H16.5782L16.6134 41.6726C24.2205 41.0929 28.6301 37.0521 28.6477 30.9559C28.6301 24.9651 24.1151 21.7852 17.8607 20.3798L16.8242 20.1338L16.8945 11.3497C19.2311 11.8943 20.6541 13.3876 20.8649 15.6012H28.1558C28.0679 9.78607 23.7286 5.62238 16.9647 4.88451L16.9999 0.755946H12.8538L12.8186 4.84937C5.9494 5.51697 1.10054 9.66309 1.13567 15.6539C1.11811 20.9595 4.86016 23.9989 10.9388 25.457L12.6254 25.8787L12.5375 35.1723C9.67389 34.6277 7.74137 32.8709 7.54812 29.937H0.186984C0.362667 37.0346 5.01828 41.005 12.4673 41.655L12.4321 45.7309ZM16.6837 35.1723L16.7539 26.9679C19.477 27.8288 20.9528 28.9356 20.9703 30.9384C20.9528 33.0641 19.3365 34.6453 16.6837 35.1723ZM12.6781 19.0622C10.482 18.3067 8.90088 17.1648 8.93602 15.1444C8.93602 13.2646 10.2712 11.8064 12.7483 11.297L12.6781 19.0622Z" fill="#B2B09D"/>
</svg>
