<svg width="40" height="40" viewBox="0 0 40 40" fill="none" xmlns="http://www.w3.org/2000/svg">
<path d="M21.4926 39.1437H17.8363C16.157 39.1437 14.7894 37.7775 14.7894 36.0968V27.5656C14.7894 27.2304 14.5163 26.9562 14.1801 26.9562C12.5008 26.9562 11.1332 25.59 11.1332 23.9093V14.7715C11.1332 12.7545 12.7749 11.1128 14.7919 11.1128H24.537C26.5539 11.1128 28.1957 12.7545 28.1957 14.7715V23.9093C28.1957 25.59 26.8295 26.9562 25.1488 26.9562C24.8136 26.9562 24.5394 27.2304 24.5394 27.5656V36.0968C24.5394 37.7775 23.1732 39.1437 21.4926 39.1437ZM14.7919 13.5499C14.1191 13.5499 13.5707 14.0984 13.5707 14.7711V23.909C13.5707 24.2441 13.8438 24.5183 14.1801 24.5183C15.8594 24.5183 17.2269 25.8845 17.2269 27.5652V36.0965C17.2269 36.4316 17.5001 36.7058 17.8363 36.7058H21.4926C21.8277 36.7058 22.1019 36.4316 22.1019 36.0965V27.5652C22.1019 25.8845 23.4681 24.5183 25.1488 24.5183C25.484 24.5183 25.7582 24.2441 25.7582 23.909V14.7711C25.7582 14.0983 25.2108 13.5499 24.537 13.5499H14.7919Z" fill="#B2B09D"/>
<path d="M19.6644 9.89368C16.9759 9.89368 14.7894 7.70724 14.7894 5.01868C14.7894 2.33011 16.9759 0.143677 19.6644 0.143677C22.353 0.143677 24.5394 2.33011 24.5394 5.01868C24.5394 7.70724 22.353 9.89368 19.6644 9.89368ZM19.6644 2.58118C18.3203 2.58118 17.2269 3.6745 17.2269 5.01868C17.2269 6.36285 18.3203 7.45618 19.6644 7.45618C21.0086 7.45618 22.1019 6.36285 22.1019 5.01868C22.1019 3.6745 21.0086 2.58118 19.6644 2.58118Z" fill="#B2B09D"/>
<path d="M32.4613 39.1437H28.1956C27.5218 39.1437 26.9769 38.5988 26.9769 37.9249C26.9769 37.2511 27.5218 36.7062 28.1956 36.7062H32.4613C32.7964 36.7062 33.0706 36.432 33.0706 36.0968V28.7843C33.0706 27.1036 34.4368 25.7374 36.1175 25.7374C36.4527 25.7374 36.7269 25.4632 36.7269 25.1281V15.9902C36.7269 15.3174 36.1796 14.769 35.5057 14.769H31.8519C31.178 14.769 30.6331 14.223 30.6331 13.5503C30.6331 12.8775 31.178 12.3315 31.8519 12.3315H35.5057C37.5226 12.3315 39.1644 13.9733 39.1644 15.9902V25.1281C39.1644 26.8087 37.7982 28.1749 36.1175 28.1749C35.7824 28.1749 35.5081 28.4491 35.5081 28.7843V36.0968C35.5081 37.7775 34.142 39.1437 32.4613 39.1437Z" fill="#B2B09D"/>
<path d="M11.1332 39.1437H6.86752C5.18823 39.1437 3.82065 37.7775 3.82065 36.0968V28.7843C3.82065 28.4491 3.54752 28.1749 3.21127 28.1749C1.53198 28.1749 0.164398 26.8087 0.164398 25.1281V15.9902C0.164398 13.9733 1.80616 12.3315 3.82309 12.3315H7.4769C8.14966 12.3315 8.69565 12.8775 8.69565 13.5503C8.69565 14.223 8.14966 14.769 7.4769 14.769H3.82309C3.15032 14.769 2.6019 15.3175 2.6019 15.9902V25.1281C2.6019 25.4632 2.87503 25.7374 3.21127 25.7374C4.89057 25.7374 6.25815 27.1036 6.25815 28.7843V36.0968C6.25815 36.432 6.53128 36.7062 6.86752 36.7062H11.1332C11.8059 36.7062 12.3519 37.2511 12.3519 37.9249C12.3519 38.5988 11.8059 39.1437 11.1332 39.1437Z" fill="#B2B09D"/>
<path d="M31.8519 11.1124C29.1633 11.1124 26.9769 8.92599 26.9769 6.23743C26.9769 3.54886 29.1633 1.36243 31.8519 1.36243C34.5405 1.36243 36.7269 3.54886 36.7269 6.23743C36.7269 8.92599 34.5405 11.1124 31.8519 11.1124ZM31.8519 3.79993C30.5077 3.79993 29.4144 4.89325 29.4144 6.23743C29.4144 7.5816 30.5077 8.67493 31.8519 8.67493C33.1961 8.67493 34.2894 7.5816 34.2894 6.23743C34.2894 4.89325 33.1961 3.79993 31.8519 3.79993Z" fill="#B2B09D"/>
<path d="M7.4769 11.1124C4.78834 11.1124 2.6019 8.92599 2.6019 6.23743C2.6019 3.54886 4.78834 1.36243 7.4769 1.36243C10.1655 1.36243 12.3519 3.54886 12.3519 6.23743C12.3519 8.92599 10.1655 11.1124 7.4769 11.1124ZM7.4769 3.79993C6.13272 3.79993 5.0394 4.89325 5.0394 6.23743C5.0394 7.5816 6.13272 8.67493 7.4769 8.67493C8.82107 8.67493 9.9144 7.5816 9.9144 6.23743C9.9144 4.89325 8.82107 3.79993 7.4769 3.79993Z" fill="#B2B09D"/>
</svg>
